<svg width="370" height="241" viewBox="0 0 370 241" fill="none" xmlns="http://www.w3.org/2000/svg">
<g clip-path="url(#clip0_88_2313)">
<path d="M47.0925 88.3759L13.6014 92.8405C13.6014 92.8405 6.70689 91.9899 4.96077 89.3754C3.21465 86.7608 35.395 72.9373 35.395 72.9373L47.0925 88.3759Z" fill="url(#paint0_linear_88_2313)"/>
<path d="M78.4358 71.4209C78.4358 71.4209 88.1095 62.8112 82.1511 59.9503C76.1926 57.0895 66.8639 60.6344 66.8639 60.6344L78.4358 71.4209Z" fill="url(#paint1_linear_88_2313)"/>
<path d="M37.5666 68.063C37.5666 68.063 30.8751 0.858495 34.3528 0.935722C37.8305 1.01295 43.9331 1.84698 44.819 3.59544C45.8364 5.58323 56.6716 50.5201 62.3848 55.4844C70.0276 62.1195 86.6774 79.7251 86.6774 79.7251L37.5666 68.063Z" fill="url(#paint2_linear_88_2313)"/>
<path d="M255.746 214.725L287.025 227.708C288.878 228.621 310.526 236.856 312.508 237.195C348.396 243.444 385.687 211.2 345.092 194.527L327.357 165.733C325.571 161.171 312.834 154.619 308.805 153.126L157.158 98.2625C156.979 98.1989 156.794 98.1409 156.61 98.0886L100.713 82.3743L37.0074 67.7691C34.3494 67.0683 32.8537 70.6958 34.5659 72.5135C35.1078 73.0453 35.6071 73.6278 36.0581 74.2548L54.5815 102.436C55.9161 104.465 57.5093 106.27 59.3122 107.794L86.7397 130.967C86.9836 131.173 87.2161 131.396 87.4361 131.633C88.3569 132.588 89.3953 133.396 90.5209 134.031L134.908 159.034L251.091 212.798C252.623 213.504 254.175 214.147 255.746 214.725Z" fill="url(#paint3_linear_88_2313)"/>
<path d="M245.054 106.31C248.309 104.319 238.512 95.7764 238.512 95.7764L240.176 105.68C240.176 105.68 244.006 106.937 245.054 106.31Z" fill="url(#paint4_linear_88_2313)"/>
<path d="M247.875 91.2543C247.875 91.2543 243.631 86.3478 239.968 85.3768C236.842 84.5565 224.995 81.2698 221.553 80.3124C221.432 80.2783 221.304 80.2723 221.18 80.2946C221.056 80.317 220.936 80.3672 220.83 80.4423C220.723 80.5174 220.632 80.6157 220.561 80.7312C220.49 80.8466 220.441 80.9768 220.417 81.1136L219.562 85.9485L236.874 92.0156C237.626 92.2779 238.4 92.4587 239.185 92.5553C242.089 92.9099 249.002 93.5322 247.875 91.2543Z" fill="url(#paint5_linear_88_2313)"/>
<path d="M240.906 110.377L245.816 111.838C247.539 112.472 248.175 114.108 248.578 116.063C249.334 119.719 249.593 125.566 244.807 128.802C243.438 129.727 242.835 129.488 242.835 129.488L240.906 110.377Z" fill="url(#paint6_linear_88_2313)"/>
<path d="M246.587 114.951C248.281 115.085 248.726 118.587 248.027 122.695C247.706 124.601 244.584 129.395 242.84 129.5C241.283 129.599 242.045 125.631 241.591 124.27C240.358 120.603 241.304 119.051 243.057 117.075C243.672 116.37 246.019 114.891 246.587 114.951Z" fill="url(#paint7_linear_88_2313)"/>
<path d="M220.838 84.1394C208.325 101.126 201.64 114.42 201.64 114.42L243.092 129.56C243.092 129.56 241.541 111.602 238.173 94.0766C237.828 92.2614 237.321 89.622 235.765 88.966L220.838 84.1394Z" fill="url(#paint8_linear_88_2313)"/>
<path d="M323.666 163.049C325.842 162.142 326.974 164.981 328.18 167.216C328.238 167.321 328.296 167.426 328.36 167.525L343.47 191.911C344.233 193.323 344.056 196.281 343.525 197.831C341.983 202.321 327.535 205.931 314.618 210.477C310.019 212.094 301.16 210.247 296.563 208.441C296.45 208.397 296.343 208.359 296.225 208.326L229.373 188.985C227.821 188.518 226.298 187.942 224.814 187.261L68.782 115.781C67.84 115.325 57.663 106.682 57.1435 105.702C56.526 104.835 56.1797 103.768 56.156 102.661C56.1323 101.554 56.4325 100.466 57.0119 99.5574C57.5913 98.6491 58.4191 97.9694 59.3723 97.6193C60.3256 97.2692 61.3534 97.2674 62.3032 97.614L281.145 168.889" fill="url(#paint9_linear_88_2313)"/>
<path d="M220.603 173.949C221.852 170.585 220.883 166.974 218.44 165.883C215.997 164.792 213.005 166.634 211.756 169.997C210.508 173.36 211.476 176.971 213.919 178.063C216.362 179.154 219.355 177.312 220.603 173.949Z" fill="#E6E7E8"/>
<path d="M205.522 167.946C206.709 164.749 205.789 161.318 203.467 160.281C201.146 159.244 198.302 160.995 197.115 164.191C195.929 167.387 196.849 170.819 199.17 171.856C201.492 172.893 204.336 171.142 205.522 167.946Z" fill="#E6E7E8"/>
<path d="M193.475 162.751C194.602 159.716 193.728 156.457 191.523 155.472C189.318 154.488 186.617 156.15 185.49 159.185C184.363 162.22 185.237 165.479 187.443 166.464C189.648 167.449 192.349 165.787 193.475 162.751Z" fill="#E6E7E8"/>
<path d="M181.434 157.553C182.505 154.668 181.676 151.57 179.582 150.635C177.488 149.699 174.922 151.281 173.85 154.166C172.779 157.052 173.608 160.15 175.702 161.085C177.797 162.02 180.363 160.439 181.434 157.553Z" fill="#E6E7E8"/>
<path d="M169.409 152.374C170.426 149.635 169.636 146.694 167.645 145.804C165.655 144.915 163.216 146.415 162.199 149.154C161.182 151.894 161.972 154.835 163.963 155.724C165.954 156.614 168.392 155.114 169.409 152.374Z" fill="#E6E7E8"/>
<path d="M158.404 147.451C159.371 144.847 158.622 142.051 156.732 141.206C154.841 140.362 152.525 141.789 151.558 144.393C150.591 146.998 151.34 149.794 153.23 150.638C155.121 151.483 157.437 150.056 158.404 147.451Z" fill="#E6E7E8"/>
<path d="M147.401 142.542C148.319 140.069 147.608 137.414 145.813 136.613C144.017 135.811 141.818 137.165 140.9 139.638C139.982 142.111 140.693 144.765 142.489 145.567C144.284 146.369 146.484 145.014 147.401 142.542Z" fill="#E6E7E8"/>
<path d="M136.408 137.632C137.281 135.282 136.605 132.76 134.9 131.998C133.194 131.237 131.105 132.524 130.233 134.873C129.36 137.223 130.036 139.745 131.741 140.507C133.447 141.269 135.536 139.981 136.408 137.632Z" fill="#E6E7E8"/>
<path d="M125.432 132.727C126.261 130.494 125.618 128.098 123.998 127.374C122.377 126.65 120.391 127.873 119.562 130.105C118.734 132.338 119.376 134.734 120.997 135.458C122.617 136.182 124.603 134.959 125.432 132.727Z" fill="#E6E7E8"/>
<path d="M115.47 128.09C116.258 125.969 115.646 123.691 114.105 123.003C112.563 122.314 110.676 123.476 109.888 125.597C109.101 127.718 109.712 129.996 111.254 130.684C112.795 131.373 114.683 130.211 115.47 128.09Z" fill="#E6E7E8"/>
<path d="M106.514 123.727C107.263 121.711 106.684 119.548 105.222 118.895C103.76 118.242 101.968 119.346 101.219 121.362C100.471 123.378 101.05 125.541 102.512 126.194C103.974 126.847 105.766 125.743 106.514 123.727Z" fill="#E6E7E8"/>
<path d="M97.5744 119.365C98.2846 117.452 97.7329 115.398 96.3421 114.777C94.9513 114.156 93.2482 115.203 92.538 117.116C91.8278 119.029 92.3795 121.084 93.7703 121.705C95.1611 122.326 96.8642 121.279 97.5744 119.365Z" fill="#E6E7E8"/>
<path d="M88.6377 115.011C89.3131 113.191 88.791 111.239 87.4717 110.649C86.1523 110.06 84.5352 111.057 83.8598 112.877C83.1844 114.696 83.7065 116.649 85.0259 117.238C86.3453 117.827 87.9623 116.83 88.6377 115.011Z" fill="#E6E7E8"/>
<path d="M26.4633 195.127L140.836 161.579L199.608 188.705C199.608 188.705 183.088 191.589 160.797 195.231C117.982 202.216 53.8815 211.974 44.6296 209.392L26.4633 195.127Z" fill="url(#paint10_linear_88_2313)"/>
<path d="M165.61 201.337C165.667 205.431 149.939 196.776 149.939 196.776L161.041 195.228C161.041 195.228 165.59 200.014 165.61 201.337Z" fill="url(#paint11_linear_88_2313)"/>
<path d="M121.72 207.837C121.782 211.938 106.053 203.276 106.053 203.276L117.146 201.711C117.146 201.711 121.705 206.509 121.72 207.837Z" fill="url(#paint12_linear_88_2313)"/>
<path d="M74.5457 214.045C74.6078 218.145 58.8794 209.484 58.8794 209.484L69.9814 207.936C69.9814 207.936 74.5301 212.728 74.5457 214.045Z" fill="url(#paint13_linear_88_2313)"/>
<path d="M47.8793 214.452C47.8793 214.452 44.8714 207.243 41.177 204.948C38.3188 203.17 27.56 195.749 22.8029 192.456C22.5518 192.282 22.2654 192.18 21.9689 192.158C21.6725 192.136 21.3753 192.196 21.1037 192.331C20.832 192.467 20.5943 192.674 20.4116 192.934C20.2288 193.194 20.1068 193.5 20.0562 193.824L18.7929 200.253C18.6858 200.793 18.7407 201.356 18.9492 201.856C19.1576 202.356 19.5084 202.766 19.9483 203.024L36.3909 213.748C36.3909 213.748 48.4719 218.342 47.8793 214.452Z" fill="url(#paint14_linear_88_2313)"/>
<path d="M124.708 200.955C124.708 200.955 119.582 214.098 123.011 217.74C126.441 221.381 139.209 227.345 139.209 227.345L141.65 226.859C141.65 226.859 146.793 225.965 150.499 213.893C154.204 201.821 143.134 197.938 143.134 197.938L124.708 200.955Z" fill="url(#paint15_linear_88_2313)"/>
<path d="M146.108 204.19C148.465 204.915 149.493 212.146 147.456 217.758C146.51 220.357 144.099 224.816 141.606 224.419C139.381 224.071 138.244 220.047 137.944 217.993C137.142 212.407 140.551 207.548 143.536 205.296C144.585 204.491 145.324 203.951 146.108 204.19Z" fill="url(#paint16_linear_88_2313)"/>
<path d="M81.2454 206.349C81.2454 206.349 76.4451 218.771 79.6489 222.198C82.8527 225.626 94.7692 231.21 94.7692 231.21L97.0437 230.747C97.0437 230.747 101.855 229.887 105.345 218.488C108.835 207.09 98.4963 203.444 98.4963 203.444L81.2454 206.349Z" fill="url(#paint17_linear_88_2313)"/>
<path d="M101.24 209.345C103.443 210.024 104.387 216.846 102.47 222.147C101.581 224.6 99.3234 228.818 96.9901 228.455C94.9299 228.131 93.8573 224.338 93.5795 222.382C92.844 217.113 96.0363 212.521 98.8308 210.388C99.8156 209.633 100.507 209.125 101.24 209.345Z" fill="url(#paint18_linear_88_2313)"/>
<path d="M329.961 171.314C331.756 176.935 340.793 187.209 339.099 193.073C337.405 198.937 321.988 203.875 315.317 206.541C301.943 211.843 292.66 202.815 289.059 191.577C285.458 180.34 278.571 176.061 291.94 170.759C305.308 165.457 326.376 160.072 329.961 171.314Z" fill="url(#paint19_linear_88_2313)"/>
<path d="M304.943 199.359C308.987 198.869 311.728 192.671 311.063 185.515C310.399 178.359 306.582 172.955 302.538 173.445C298.493 173.934 295.753 180.132 296.418 187.288C297.082 194.444 300.899 199.849 304.943 199.359Z" fill="white"/>
<path d="M304.517 191.228C306.26 191.017 307.441 188.344 307.155 185.257C306.868 182.171 305.223 179.839 303.479 180.051C301.736 180.262 300.555 182.935 300.841 186.021C301.128 189.108 302.773 191.439 304.517 191.228Z" fill="#231F20"/>
<path d="M304.386 185.674C304.762 185.629 305.016 185.052 304.955 184.387C304.893 183.721 304.539 183.218 304.164 183.263C303.789 183.308 303.534 183.884 303.595 184.55C303.657 185.216 304.011 185.719 304.386 185.674Z" fill="white"/>
<path d="M305.436 186.169C305.624 186.146 305.751 185.858 305.72 185.525C305.689 185.192 305.512 184.941 305.324 184.964C305.137 184.986 305.01 185.275 305.04 185.608C305.071 185.94 305.249 186.192 305.436 186.169Z" fill="white"/>
<path d="M293.645 179.794C291.596 174.925 298.74 170.027 302.519 169.92L302.517 169.977C298.623 170.412 292.85 175.055 293.64 179.794L293.645 179.794Z" fill="#231F20"/>
<path d="M322.912 193.966C326.66 193.308 328.958 187.4 328.046 180.771C327.133 174.142 323.354 169.302 319.606 169.961C315.858 170.619 313.56 176.527 314.473 183.156C315.386 189.785 319.164 194.625 322.912 193.966Z" fill="white"/>
<path d="M321.914 186.731C323.607 186.434 324.646 183.768 324.234 180.776C323.822 177.784 322.116 175.6 320.423 175.898C318.729 176.195 317.691 178.862 318.103 181.853C318.515 184.845 320.221 187.029 321.914 186.731Z" fill="#231F20"/>
<path d="M321.029 182.124C321.403 182.065 321.64 181.48 321.558 180.817C321.477 180.154 321.108 179.665 320.734 179.723C320.36 179.782 320.123 180.368 320.204 181.03C320.285 181.693 320.655 182.183 321.029 182.124Z" fill="white"/>
<path d="M321.951 182.83C322.138 182.8 322.257 182.508 322.216 182.176C322.176 181.845 321.991 181.6 321.804 181.629C321.617 181.659 321.499 181.951 321.539 182.283C321.58 182.614 321.765 182.859 321.951 182.83Z" fill="white"/>
<path d="M316.19 167.782C318.886 163.9 325.959 166.88 327.478 170.803L327.431 170.801C325.001 167.613 319.422 164.262 316.19 167.782Z" fill="#231F20"/>
<path d="M329.128 224.601C337.586 223.126 326.649 237.266 315.576 235.672C310.465 234.919 304.404 231.889 299.422 228.341C293.607 224.215 289.256 219.396 289.574 216.843C289.871 214.461 308.278 228.225 329.128 224.601Z" fill="#231F20"/>
<path d="M290.895 214.36C288.504 213.863 287.632 216.396 288.34 218.511C288.624 219.157 289.115 219.664 289.719 219.933C289.376 219.868 289.052 219.72 288.768 219.5C288.484 219.28 288.247 218.994 288.075 218.661C287.03 216.438 288.381 213.229 290.895 214.36Z" fill="#231F20"/>
<path d="M332.391 228.534C334.678 227.584 334.233 224.93 332.63 223.54C332.082 223.151 331.422 222.999 330.775 223.114C331.1 222.973 331.449 222.913 331.796 222.937C332.143 222.962 332.481 223.069 332.785 223.253C334.728 224.547 335.081 228.051 332.391 228.534Z" fill="#231F20"/>
<path d="M300.755 229.315C306.987 226.496 313.217 231.502 314.862 232.276C314.984 232.334 315.118 232.354 315.25 232.335C315.382 232.315 315.507 232.256 315.612 232.165C316.307 231.56 318.314 229.868 322.393 230.796C328.764 232.246 327.925 231.805 327.925 231.805C327.925 231.805 321.676 236.123 317.352 235.397C313.027 234.672 308.502 233.59 304.615 231.478L300.744 229.344L300.755 229.315Z" fill="url(#paint20_linear_88_2313)"/>
<path d="M314.777 232.336C314.777 232.336 317.138 233.095 317.089 235.503Z" fill="#231F20"/>
<path d="M290.136 217.652L298.069 222.088C299.399 222.887 300.809 223.513 302.271 223.954L311.964 227.227C313.19 227.498 314.431 227.687 315.678 227.794L324.128 227.738C324.618 227.715 325.105 227.636 325.581 227.503L331.86 225.693C332.27 225.53 331.49 224.724 331.054 224.743L323.943 225.344C323.865 225.347 323.787 225.345 323.71 225.336L313.425 225.173C312.324 225.149 311.233 224.959 310.182 224.606L290.451 216.954C290.37 216.927 290.283 216.933 290.206 216.97C290.128 217.008 290.065 217.074 290.027 217.158C289.99 217.242 289.98 217.337 290 217.428C290.02 217.518 290.068 217.598 290.136 217.652V217.652Z" fill="white"/>
</g>
<defs>
<linearGradient id="paint0_linear_88_2313" x1="5.15227" y1="82.2046" x2="47.2736" y2="83.6945" gradientUnits="userSpaceOnUse">
<stop offset="0.2" stop-color="#EF4136"/>
<stop offset="0.5" stop-color="#EF4136" stop-opacity="0.79"/>
<stop offset="1" stop-color="#EF4136" stop-opacity="0.4"/>
</linearGradient>
<linearGradient id="paint1_linear_88_2313" x1="2154.32" y1="1841.14" x2="2731.7" y2="1861.57" gradientUnits="userSpaceOnUse">
<stop offset="0.2" stop-color="#EF4136"/>
<stop offset="0.5" stop-color="#EF4136" stop-opacity="0.79"/>
<stop offset="1" stop-color="#EF4136" stop-opacity="0.4"/>
</linearGradient>
<linearGradient id="paint2_linear_88_2313" x1="3691.94" y1="6454.09" x2="8471.76" y2="12034.1" gradientUnits="userSpaceOnUse">
<stop offset="0.2" stop-color="#EF4136"/>
<stop offset="0.5" stop-color="#EF4136" stop-opacity="0.79"/>
<stop offset="1" stop-color="#EF4136" stop-opacity="0.4"/>
</linearGradient>
<linearGradient id="paint3_linear_88_2313" x1="155.974" y1="233.782" x2="241.124" y2="82.4103" gradientUnits="userSpaceOnUse">
<stop offset="0.31" stop-color="#EF4136"/>
<stop offset="0.35" stop-color="#EF4136" stop-opacity="0.95"/>
<stop offset="0.5" stop-color="#EF4136" stop-opacity="0.75"/>
<stop offset="0.65" stop-color="#EF4136" stop-opacity="0.6"/>
<stop offset="0.78" stop-color="#EF4136" stop-opacity="0.49"/>
<stop offset="0.9" stop-color="#EF4136" stop-opacity="0.42"/>
<stop offset="1" stop-color="#EF4136" stop-opacity="0.4"/>
</linearGradient>
<linearGradient id="paint4_linear_88_2313" x1="3615.92" y1="2203.75" x2="3725.43" y2="2207.62" gradientUnits="userSpaceOnUse">
<stop offset="0.2" stop-color="#EF4136"/>
<stop offset="0.5" stop-color="#EF4136" stop-opacity="0.79"/>
<stop offset="1" stop-color="#EF4136" stop-opacity="0.4"/>
</linearGradient>
<linearGradient id="paint5_linear_88_2313" x1="13231.9" y1="1931.23" x2="13109.5" y2="3132.38" gradientUnits="userSpaceOnUse">
<stop offset="0.2" stop-color="#EF4136"/>
<stop offset="0.5" stop-color="#EF4136" stop-opacity="0.79"/>
<stop offset="1" stop-color="#EF4136" stop-opacity="0.4"/>
</linearGradient>
<linearGradient id="paint6_linear_88_2313" x1="4003.02" y1="4475.78" x2="4140.6" y2="4480.65" gradientUnits="userSpaceOnUse">
<stop offset="0.2" stop-color="#EF4136"/>
<stop offset="0.5" stop-color="#EF4136" stop-opacity="0.79"/>
<stop offset="1" stop-color="#EF4136" stop-opacity="0.4"/>
</linearGradient>
<linearGradient id="paint7_linear_88_2313" x1="3489.45" y1="3546.02" x2="3590.84" y2="3549.61" gradientUnits="userSpaceOnUse">
<stop offset="0.2" stop-color="#EF4136"/>
<stop offset="0.5" stop-color="#EF4136" stop-opacity="0.79"/>
<stop offset="1" stop-color="#EF4136" stop-opacity="0.4"/>
</linearGradient>
<linearGradient id="paint8_linear_88_2313" x1="16167.8" y1="9563.83" x2="19567.5" y2="9684.09" gradientUnits="userSpaceOnUse">
<stop offset="0.2" stop-color="#EF4136"/>
<stop offset="0.5" stop-color="#EF4136" stop-opacity="0.79"/>
<stop offset="1" stop-color="#EF4136" stop-opacity="0.4"/>
</linearGradient>
<linearGradient id="paint9_linear_88_2313" x1="29961.5" y1="31105.8" x2="193349" y2="36885.3" gradientUnits="userSpaceOnUse">
<stop offset="0.2" stop-color="#EF4136"/>
<stop offset="0.5" stop-color="#EF4136" stop-opacity="0.79"/>
<stop offset="1" stop-color="#EF4136" stop-opacity="0.4"/>
</linearGradient>
<linearGradient id="paint10_linear_88_2313" x1="8976.43" y1="18288.5" x2="66637.9" y2="20328.2" gradientUnits="userSpaceOnUse">
<stop offset="0.2" stop-color="#EF4136"/>
<stop offset="0.5" stop-color="#EF4136" stop-opacity="0.79"/>
<stop offset="1" stop-color="#EF4136" stop-opacity="0.4"/>
</linearGradient>
<linearGradient id="paint11_linear_88_2313" x1="4707.74" y1="2946.32" x2="5191.2" y2="2963.42" gradientUnits="userSpaceOnUse">
<stop offset="0.2" stop-color="#EF4136"/>
<stop offset="0.5" stop-color="#EF4136" stop-opacity="0.79"/>
<stop offset="1" stop-color="#EF4136" stop-opacity="0.4"/>
</linearGradient>
<linearGradient id="paint12_linear_88_2313" x1="3325.98" y1="3012.68" x2="3809.28" y2="3029.78" gradientUnits="userSpaceOnUse">
<stop offset="0.2" stop-color="#EF4136"/>
<stop offset="0.5" stop-color="#EF4136" stop-opacity="0.79"/>
<stop offset="1" stop-color="#EF4136" stop-opacity="0.4"/>
</linearGradient>
<linearGradient id="paint13_linear_88_2313" x1="1842.26" y1="3059.47" x2="2325.56" y2="3076.57" gradientUnits="userSpaceOnUse">
<stop offset="0.2" stop-color="#EF4136"/>
<stop offset="0.5" stop-color="#EF4136" stop-opacity="0.79"/>
<stop offset="1" stop-color="#EF4136" stop-opacity="0.4"/>
</linearGradient>
<linearGradient id="paint14_linear_88_2313" x1="2462.33" y1="8259.17" x2="1569.74" y2="10006.3" gradientUnits="userSpaceOnUse">
<stop offset="0.2" stop-color="#EF4136"/>
<stop offset="0.5" stop-color="#EF4136" stop-opacity="0.79"/>
<stop offset="1" stop-color="#EF4136" stop-opacity="0.4"/>
</linearGradient>
<linearGradient id="paint15_linear_88_2313" x1="6760.94" y1="11960.3" x2="8414.96" y2="12018.8" gradientUnits="userSpaceOnUse">
<stop offset="0.2" stop-color="#EF4136"/>
<stop offset="0.5" stop-color="#EF4136" stop-opacity="0.79"/>
<stop offset="1" stop-color="#EF4136" stop-opacity="0.4"/>
</linearGradient>
<linearGradient id="paint16_linear_88_2313" x1="2722.67" y1="8329.32" x2="2937.75" y2="8336.93" gradientUnits="userSpaceOnUse">
<stop offset="0.2" stop-color="#EF4136"/>
<stop offset="0.5" stop-color="#EF4136" stop-opacity="0.79"/>
<stop offset="1" stop-color="#EF4136" stop-opacity="0.4"/>
</linearGradient>
<linearGradient id="paint17_linear_88_2313" x1="3993.22" y1="11531.7" x2="5438.65" y2="11582.9" gradientUnits="userSpaceOnUse">
<stop offset="0.2" stop-color="#EF4136"/>
<stop offset="0.5" stop-color="#EF4136" stop-opacity="0.79"/>
<stop offset="1" stop-color="#EF4136" stop-opacity="0.4"/>
</linearGradient>
<linearGradient id="paint18_linear_88_2313" x1="1659.33" y1="8061.37" x2="1847.48" y2="8068.03" gradientUnits="userSpaceOnUse">
<stop offset="0.2" stop-color="#EF4136"/>
<stop offset="0.5" stop-color="#EF4136" stop-opacity="0.79"/>
<stop offset="1" stop-color="#EF4136" stop-opacity="0.4"/>
</linearGradient>
<linearGradient id="paint19_linear_88_2313" x1="28243.7" y1="8326.22" x2="33275.1" y2="6713.44" gradientUnits="userSpaceOnUse">
<stop offset="0.2" stop-color="#EF4136"/>
<stop offset="0.5" stop-color="#EF4136" stop-opacity="0.79"/>
<stop offset="1" stop-color="#EF4136" stop-opacity="0.4"/>
</linearGradient>
<linearGradient id="paint20_linear_88_2313" x1="15406.8" y1="6377.48" x2="16817.7" y2="6635.97" gradientUnits="userSpaceOnUse">
<stop offset="0.2" stop-color="#EF4136"/>
<stop offset="0.5" stop-color="#EF4136" stop-opacity="0.79"/>
<stop offset="1" stop-color="#EF4136" stop-opacity="0.4"/>
</linearGradient>
<clipPath id="clip0_88_2313">
<rect width="362" height="228" fill="white" transform="translate(8.06006) rotate(2.0259)"/>
</clipPath>
</defs>
</svg>
